<?xml version="1.0" encoding="utf-8"?>
<!-- Generator: Adobe Illustrator 25.3.1, SVG Export Plug-In . SVG Version: 6.00 Build 0)  -->
<svg version="1.1" id="Capa_1" xmlns="http://www.w3.org/2000/svg" xmlns:xlink="http://www.w3.org/1999/xlink" x="0px" y="0px"
	 viewBox="0 0 100 43.4" style="enable-background:new 0 0 100 43.4;" xml:space="preserve">
<style type="text/css">
	.st0{fill:#FFFFFF;}
	.st1{fill:#009A85;}
</style>
<g>
	<circle class="st0" cx="3.6" cy="3.6" r="3.6"/>
	<rect x="0.6" y="10" class="st0" width="5.8" height="33.5"/>
	<path class="st0" d="M9.4,10.7v32.8h6.2V22.1c0,0,1.5-7.2,7.8-7.2c6.3,0,7.3,4.4,7.7,7.2c0.1,1.4,0,21.4,0,21.4h5.9V22
		c0,0-0.3-4.6-1.8-6.8c-1.7-3.6-6.8-5.6-10.5-5.3c-2.3,0.2-4.6,1.3-5.3,1.6c-0.6,0.4-2.6,1.7-3.5,3.1c-0.7,1.1-0.7,1.5-0.7,1.5
		l-0.3,0v-5.5H9.4z"/>
	<polygon class="st1" points="39.9,9.9 39.9,43.4 45.1,43.4 45.1,26.7 56.5,43.4 63.9,43.4 63.9,39 58.9,39 50.8,26.7 58.8,14.5 
		63.9,14.5 63.9,9.9 56.5,9.9 45.2,26.1 45.2,9.9 	"/>
	<path class="st0" d="M66.9,9.9v4.5c0,0,9.5,1,9.5,12.2c0,8.9-9.5,12.4-9.5,12.4v4.4c0,0,13.9-2,13.9-16.8
		C80.9,10.3,66.9,9.9,66.9,9.9z"/>
	<path class="st0" d="M83.9,10.7l0.3,32.7h5.7V24.3c0,0,0.3-4.3,3-6.7c1.6-1.6,3.4-2.2,5.2-2.2s1.9,0.3,1.9,0.3v-5.5
		c0,0-4.1-0.7-6.5,1.3c-2.4,2-2.5,2.5-3.3,4c-0.2,0.4-0.6,1.7-0.6,1.7l-0.4,0v-6.4L83.9,10.7z"/>
</g>
</svg>
